<mxfile>
    <diagram id="pzWKNhb0-TU2nbGf441o" name="Page-1">
        <mxGraphModel dx="422" dy="357" grid="1" gridSize="10" guides="1" tooltips="1" connect="1" arrows="1" fold="1" page="1" pageScale="1" pageWidth="850" pageHeight="1100" math="0" shadow="0">
            <root>
                <mxCell id="0"/>
                <mxCell id="1" parent="0"/>
                <mxCell id="7" value="" style="rounded=0;whiteSpace=wrap;html=1;" vertex="1" parent="1">
                    <mxGeometry x="10" y="40" width="30" height="110" as="geometry"/>
                </mxCell>
                <mxCell id="8" value="" style="rounded=0;whiteSpace=wrap;html=1;" vertex="1" parent="1">
                    <mxGeometry x="50" y="40" width="30" height="110" as="geometry"/>
                </mxCell>
                <mxCell id="9" value="" style="rounded=0;whiteSpace=wrap;html=1;" vertex="1" parent="1">
                    <mxGeometry x="90" y="40" width="30" height="110" as="geometry"/>
                </mxCell>
                <mxCell id="10" value="" style="rounded=0;whiteSpace=wrap;html=1;" vertex="1" parent="1">
                    <mxGeometry x="130" y="40" width="30" height="110" as="geometry"/>
                </mxCell>
                <mxCell id="11" value="" style="rounded=0;whiteSpace=wrap;html=1;" vertex="1" parent="1">
                    <mxGeometry x="170" y="40" width="30" height="110" as="geometry"/>
                </mxCell>
                <mxCell id="12" value="" style="rounded=0;whiteSpace=wrap;html=1;" vertex="1" parent="1">
                    <mxGeometry x="210" y="40" width="30" height="110" as="geometry"/>
                </mxCell>
                <mxCell id="13" value="k1,v1" style="rounded=0;whiteSpace=wrap;html=1;" vertex="1" parent="1">
                    <mxGeometry x="10" y="40" width="30" height="30" as="geometry"/>
                </mxCell>
                <mxCell id="14" value="" style="rounded=0;whiteSpace=wrap;html=1;" vertex="1" parent="1">
                    <mxGeometry x="10" y="80" width="30" height="30" as="geometry"/>
                </mxCell>
                <mxCell id="15" value="" style="rounded=0;whiteSpace=wrap;html=1;" vertex="1" parent="1">
                    <mxGeometry x="10" y="120" width="30" height="30" as="geometry"/>
                </mxCell>
                <mxCell id="16" value="" style="rounded=0;whiteSpace=wrap;html=1;" vertex="1" parent="1">
                    <mxGeometry x="50" y="80" width="30" height="30" as="geometry"/>
                </mxCell>
                <mxCell id="17" value="" style="rounded=0;whiteSpace=wrap;html=1;" vertex="1" parent="1">
                    <mxGeometry x="50" y="120" width="30" height="30" as="geometry"/>
                </mxCell>
                <mxCell id="18" value="" style="rounded=0;whiteSpace=wrap;html=1;" vertex="1" parent="1">
                    <mxGeometry x="90" y="120" width="30" height="30" as="geometry"/>
                </mxCell>
                <mxCell id="19" value="" style="rounded=0;whiteSpace=wrap;html=1;" vertex="1" parent="1">
                    <mxGeometry x="90" y="80" width="30" height="30" as="geometry"/>
                </mxCell>
                <mxCell id="20" value="" style="rounded=0;whiteSpace=wrap;html=1;" vertex="1" parent="1">
                    <mxGeometry x="50" y="40" width="30" height="30" as="geometry"/>
                </mxCell>
                <mxCell id="21" value="k5,v5" style="rounded=0;whiteSpace=wrap;html=1;" vertex="1" parent="1">
                    <mxGeometry x="130" y="120" width="30" height="30" as="geometry"/>
                </mxCell>
                <mxCell id="22" value="" style="rounded=0;whiteSpace=wrap;html=1;" vertex="1" parent="1">
                    <mxGeometry x="170" y="80" width="30" height="30" as="geometry"/>
                </mxCell>
                <mxCell id="23" value="k2,v2" style="rounded=0;whiteSpace=wrap;html=1;" vertex="1" parent="1">
                    <mxGeometry x="90" y="40" width="30" height="30" as="geometry"/>
                </mxCell>
                <mxCell id="24" value="" style="rounded=0;whiteSpace=wrap;html=1;" vertex="1" parent="1">
                    <mxGeometry x="170" y="40" width="30" height="30" as="geometry"/>
                </mxCell>
                <mxCell id="25" value="" style="rounded=0;whiteSpace=wrap;html=1;" vertex="1" parent="1">
                    <mxGeometry x="170" y="120" width="30" height="30" as="geometry"/>
                </mxCell>
                <mxCell id="26" value="" style="rounded=0;whiteSpace=wrap;html=1;" vertex="1" parent="1">
                    <mxGeometry x="210" y="120" width="30" height="30" as="geometry"/>
                </mxCell>
                <mxCell id="27" value="" style="rounded=0;whiteSpace=wrap;html=1;" vertex="1" parent="1">
                    <mxGeometry x="210" y="80" width="30" height="30" as="geometry"/>
                </mxCell>
                <mxCell id="28" value="k4,v4" style="rounded=0;whiteSpace=wrap;html=1;" vertex="1" parent="1">
                    <mxGeometry x="130" y="80" width="30" height="30" as="geometry"/>
                </mxCell>
                <mxCell id="29" value="k3,v3" style="rounded=0;whiteSpace=wrap;html=1;" vertex="1" parent="1">
                    <mxGeometry x="130" y="40" width="30" height="30" as="geometry"/>
                </mxCell>
                <mxCell id="30" value="" style="rounded=0;whiteSpace=wrap;html=1;" vertex="1" parent="1">
                    <mxGeometry x="210" y="40" width="30" height="30" as="geometry"/>
                </mxCell>
                <mxCell id="31" value="left input hash map" style="text;html=1;strokeColor=none;fillColor=none;align=center;verticalAlign=middle;whiteSpace=wrap;rounded=0;" vertex="1" parent="1">
                    <mxGeometry x="60" y="10" width="120" height="20" as="geometry"/>
                </mxCell>
                <mxCell id="32" value="right input hash map" style="text;html=1;strokeColor=none;fillColor=none;align=center;verticalAlign=middle;whiteSpace=wrap;rounded=0;" vertex="1" parent="1">
                    <mxGeometry x="60" y="170" width="120" height="20" as="geometry"/>
                </mxCell>
                <mxCell id="33" value="" style="rounded=0;whiteSpace=wrap;html=1;" vertex="1" parent="1">
                    <mxGeometry x="10" y="200" width="30" height="110" as="geometry"/>
                </mxCell>
                <mxCell id="34" value="" style="rounded=0;whiteSpace=wrap;html=1;" vertex="1" parent="1">
                    <mxGeometry x="50" y="200" width="30" height="110" as="geometry"/>
                </mxCell>
                <mxCell id="35" value="" style="rounded=0;whiteSpace=wrap;html=1;" vertex="1" parent="1">
                    <mxGeometry x="90" y="200" width="30" height="110" as="geometry"/>
                </mxCell>
                <mxCell id="36" value="" style="rounded=0;whiteSpace=wrap;html=1;" vertex="1" parent="1">
                    <mxGeometry x="130" y="200" width="30" height="110" as="geometry"/>
                </mxCell>
                <mxCell id="37" value="" style="rounded=0;whiteSpace=wrap;html=1;" vertex="1" parent="1">
                    <mxGeometry x="170" y="200" width="30" height="110" as="geometry"/>
                </mxCell>
                <mxCell id="38" value="" style="rounded=0;whiteSpace=wrap;html=1;" vertex="1" parent="1">
                    <mxGeometry x="210" y="200" width="30" height="110" as="geometry"/>
                </mxCell>
                <mxCell id="39" value="k1,va" style="rounded=0;whiteSpace=wrap;html=1;" vertex="1" parent="1">
                    <mxGeometry x="10" y="200" width="30" height="30" as="geometry"/>
                </mxCell>
                <mxCell id="40" value="" style="rounded=0;whiteSpace=wrap;html=1;" vertex="1" parent="1">
                    <mxGeometry x="10" y="240" width="30" height="30" as="geometry"/>
                </mxCell>
                <mxCell id="41" value="" style="rounded=0;whiteSpace=wrap;html=1;" vertex="1" parent="1">
                    <mxGeometry x="10" y="280" width="30" height="30" as="geometry"/>
                </mxCell>
                <mxCell id="42" value="" style="rounded=0;whiteSpace=wrap;html=1;" vertex="1" parent="1">
                    <mxGeometry x="50" y="240" width="30" height="30" as="geometry"/>
                </mxCell>
                <mxCell id="43" value="" style="rounded=0;whiteSpace=wrap;html=1;" vertex="1" parent="1">
                    <mxGeometry x="50" y="280" width="30" height="30" as="geometry"/>
                </mxCell>
                <mxCell id="44" value="" style="rounded=0;whiteSpace=wrap;html=1;" vertex="1" parent="1">
                    <mxGeometry x="90" y="280" width="30" height="30" as="geometry"/>
                </mxCell>
                <mxCell id="45" value="" style="rounded=0;whiteSpace=wrap;html=1;" vertex="1" parent="1">
                    <mxGeometry x="90" y="240" width="30" height="30" as="geometry"/>
                </mxCell>
                <mxCell id="46" value="" style="rounded=0;whiteSpace=wrap;html=1;" vertex="1" parent="1">
                    <mxGeometry x="50" y="200" width="30" height="30" as="geometry"/>
                </mxCell>
                <mxCell id="47" value="" style="rounded=0;whiteSpace=wrap;html=1;" vertex="1" parent="1">
                    <mxGeometry x="130" y="280" width="30" height="30" as="geometry"/>
                </mxCell>
                <mxCell id="48" value="" style="rounded=0;whiteSpace=wrap;html=1;" vertex="1" parent="1">
                    <mxGeometry x="170" y="240" width="30" height="30" as="geometry"/>
                </mxCell>
                <mxCell id="49" value="k2,vb" style="rounded=0;whiteSpace=wrap;html=1;" vertex="1" parent="1">
                    <mxGeometry x="90" y="200" width="30" height="30" as="geometry"/>
                </mxCell>
                <mxCell id="50" value="" style="rounded=0;whiteSpace=wrap;html=1;" vertex="1" parent="1">
                    <mxGeometry x="170" y="200" width="30" height="30" as="geometry"/>
                </mxCell>
                <mxCell id="51" value="" style="rounded=0;whiteSpace=wrap;html=1;" vertex="1" parent="1">
                    <mxGeometry x="170" y="280" width="30" height="30" as="geometry"/>
                </mxCell>
                <mxCell id="52" value="" style="rounded=0;whiteSpace=wrap;html=1;" vertex="1" parent="1">
                    <mxGeometry x="210" y="280" width="30" height="30" as="geometry"/>
                </mxCell>
                <mxCell id="53" value="" style="rounded=0;whiteSpace=wrap;html=1;" vertex="1" parent="1">
                    <mxGeometry x="210" y="240" width="30" height="30" as="geometry"/>
                </mxCell>
                <mxCell id="54" value="k4,vc" style="rounded=0;whiteSpace=wrap;html=1;" vertex="1" parent="1">
                    <mxGeometry x="130" y="240" width="30" height="30" as="geometry"/>
                </mxCell>
                <mxCell id="55" value="k3,vb" style="rounded=0;whiteSpace=wrap;html=1;" vertex="1" parent="1">
                    <mxGeometry x="130" y="200" width="30" height="30" as="geometry"/>
                </mxCell>
                <mxCell id="56" value="" style="rounded=0;whiteSpace=wrap;html=1;" vertex="1" parent="1">
                    <mxGeometry x="210" y="200" width="30" height="30" as="geometry"/>
                </mxCell>
                <mxCell id="58" value="returned hash map" style="text;html=1;strokeColor=none;fillColor=none;align=center;verticalAlign=middle;whiteSpace=wrap;rounded=0;" vertex="1" parent="1">
                    <mxGeometry x="60" y="330" width="120" height="20" as="geometry"/>
                </mxCell>
                <mxCell id="59" value="" style="rounded=0;whiteSpace=wrap;html=1;" vertex="1" parent="1">
                    <mxGeometry y="360" width="50" height="110" as="geometry"/>
                </mxCell>
                <mxCell id="60" value="" style="rounded=0;whiteSpace=wrap;html=1;" vertex="1" parent="1">
                    <mxGeometry x="60" y="360" width="10" height="110" as="geometry"/>
                </mxCell>
                <mxCell id="61" value="" style="rounded=0;whiteSpace=wrap;html=1;" vertex="1" parent="1">
                    <mxGeometry x="80" y="360" width="50" height="110" as="geometry"/>
                </mxCell>
                <mxCell id="62" value="" style="rounded=0;whiteSpace=wrap;html=1;" vertex="1" parent="1">
                    <mxGeometry x="140" y="360" width="70" height="110" as="geometry"/>
                </mxCell>
                <mxCell id="63" value="" style="rounded=0;whiteSpace=wrap;html=1;" vertex="1" parent="1">
                    <mxGeometry x="220" y="360" width="10" height="110" as="geometry"/>
                </mxCell>
                <mxCell id="64" value="" style="rounded=0;whiteSpace=wrap;html=1;" vertex="1" parent="1">
                    <mxGeometry x="240" y="360" width="10" height="110" as="geometry"/>
                </mxCell>
                <mxCell id="65" value="k1,v1,va" style="rounded=0;whiteSpace=wrap;html=1;" vertex="1" parent="1">
                    <mxGeometry y="360" width="50" height="30" as="geometry"/>
                </mxCell>
                <mxCell id="66" value="" style="rounded=0;whiteSpace=wrap;html=1;" vertex="1" parent="1">
                    <mxGeometry y="400" width="50" height="30" as="geometry"/>
                </mxCell>
                <mxCell id="67" value="" style="rounded=0;whiteSpace=wrap;html=1;" vertex="1" parent="1">
                    <mxGeometry y="440" width="50" height="30" as="geometry"/>
                </mxCell>
                <mxCell id="68" value="" style="rounded=0;whiteSpace=wrap;html=1;" vertex="1" parent="1">
                    <mxGeometry x="60" y="400" width="10" height="30" as="geometry"/>
                </mxCell>
                <mxCell id="69" value="" style="rounded=0;whiteSpace=wrap;html=1;" vertex="1" parent="1">
                    <mxGeometry x="60" y="440" width="10" height="30" as="geometry"/>
                </mxCell>
                <mxCell id="70" value="" style="rounded=0;whiteSpace=wrap;html=1;" vertex="1" parent="1">
                    <mxGeometry x="80" y="440" width="50" height="30" as="geometry"/>
                </mxCell>
                <mxCell id="71" value="" style="rounded=0;whiteSpace=wrap;html=1;" vertex="1" parent="1">
                    <mxGeometry x="80" y="400" width="50" height="30" as="geometry"/>
                </mxCell>
                <mxCell id="72" value="" style="rounded=0;whiteSpace=wrap;html=1;" vertex="1" parent="1">
                    <mxGeometry x="60" y="360" width="10" height="30" as="geometry"/>
                </mxCell>
                <mxCell id="73" value="k5,v1,NULL" style="rounded=0;whiteSpace=wrap;html=1;" vertex="1" parent="1">
                    <mxGeometry x="140" y="440" width="70" height="30" as="geometry"/>
                </mxCell>
                <mxCell id="74" value="" style="rounded=0;whiteSpace=wrap;html=1;" vertex="1" parent="1">
                    <mxGeometry x="220" y="400" width="10" height="30" as="geometry"/>
                </mxCell>
                <mxCell id="75" value="k2,v1,vb" style="rounded=0;whiteSpace=wrap;html=1;" vertex="1" parent="1">
                    <mxGeometry x="80" y="360" width="50" height="30" as="geometry"/>
                </mxCell>
                <mxCell id="76" value="" style="rounded=0;whiteSpace=wrap;html=1;" vertex="1" parent="1">
                    <mxGeometry x="220" y="360" width="10" height="30" as="geometry"/>
                </mxCell>
                <mxCell id="77" value="" style="rounded=0;whiteSpace=wrap;html=1;" vertex="1" parent="1">
                    <mxGeometry x="220" y="440" width="10" height="30" as="geometry"/>
                </mxCell>
                <mxCell id="78" value="" style="rounded=0;whiteSpace=wrap;html=1;" vertex="1" parent="1">
                    <mxGeometry x="240" y="440" width="10" height="30" as="geometry"/>
                </mxCell>
                <mxCell id="79" value="" style="rounded=0;whiteSpace=wrap;html=1;" vertex="1" parent="1">
                    <mxGeometry x="240" y="400" width="10" height="30" as="geometry"/>
                </mxCell>
                <mxCell id="80" value="k4,v1,vc" style="rounded=0;whiteSpace=wrap;html=1;" vertex="1" parent="1">
                    <mxGeometry x="140" y="400" width="70" height="30" as="geometry"/>
                </mxCell>
                <mxCell id="81" value="k3,v1,vb" style="rounded=0;whiteSpace=wrap;html=1;" vertex="1" parent="1">
                    <mxGeometry x="140" y="360" width="70" height="30" as="geometry"/>
                </mxCell>
                <mxCell id="82" value="" style="rounded=0;whiteSpace=wrap;html=1;" vertex="1" parent="1">
                    <mxGeometry x="240" y="360" width="10" height="30" as="geometry"/>
                </mxCell>
            </root>
        </mxGraphModel>
    </diagram>
</mxfile>